<svg width="39" height="67" viewBox="0 0 39 67" fill="none" xmlns="http://www.w3.org/2000/svg">
<path d="M38.5019 61.1302V5.55731L28.8764 11.1147V33.3435L19.251 38.9009V16.6717L9.62549 22.2291V55.5728L28.8764 44.4583V66.6872L38.5019 61.1302Z" fill="white"/>
<path d="M28.8762 66.6871L19.2507 61.1301V50.0153L28.8762 44.4583V66.6871Z" fill="#FF6699"/>
<path d="M28.8762 11.1147L19.2507 5.55731V27.7865L28.8762 33.3435V11.1147Z" fill="#FF6699"/>
<path d="M19.2507 5.55741L28.8762 0L38.5017 5.55741L28.8762 11.1148L19.2507 5.55741Z" fill="#FF99BB"/>
<path d="M19.2507 27.7864L28.8762 33.3434L19.2507 38.9008V27.7864Z" fill="#FF99BB"/>
<path d="M19.2509 16.6719L9.62547 11.1149L0 16.6719L9.62547 22.2293L19.2509 16.6719Z" fill="#FF99BB"/>
<path d="M0 16.6716V50.0153L9.62547 55.5727V22.229L0 16.6716Z" fill="#FF6699"/>
</svg>
