<svg width="57" height="64" viewBox="0 0 57 64" fill="none" xmlns="http://www.w3.org/2000/svg">
<path d="M24.9845 2.2607C27.4411 0.859516 30.455 0.859514 32.9116 2.2607L42.974 8L52.9636 13.6977C55.4593 15.1212 57 17.7737 57 20.6468L57 32L57 43.3532C57 46.2263 55.4593 48.8788 52.9636 50.3023L42.974 56L32.9116 61.7393C30.455 63.1405 27.4411 63.1405 24.9845 61.7393L14.9221 56L4.93255 50.3023C2.43684 48.8788 0.896119 46.2263 0.896119 43.3532L0.896119 32L0.896118 20.6468C0.896118 17.7737 2.43683 15.1212 4.93255 13.6977L14.9221 8L24.9845 2.2607Z" fill="white" fill-opacity="0.2"/>
<g opacity="0.8" clip-path="url(#clip0_9_3109)">
<path d="M28.9481 18C26.0318 18.0033 23.2358 19.1633 21.1736 21.2255C19.1114 23.2877 17.9514 26.0836 17.9481 29C17.9481 38.4125 27.9481 45.5212 28.3744 45.8188C28.5425 45.9365 28.7428 45.9997 28.9481 45.9997C29.1534 45.9997 29.3537 45.9365 29.5219 45.8188C29.9481 45.5212 39.9481 38.4125 39.9481 29C39.9448 26.0836 38.7848 23.2877 36.7226 21.2255C34.6605 19.1633 31.8645 18.0033 28.9481 18ZM28.9481 25C29.7392 25 30.5126 25.2346 31.1704 25.6741C31.8282 26.1136 32.3409 26.7384 32.6436 27.4693C32.9464 28.2002 33.0256 29.0044 32.8713 29.7804C32.7169 30.5563 32.336 31.269 31.7765 31.8284C31.2171 32.3878 30.5044 32.7688 29.7285 32.9231C28.9526 33.0775 28.1483 32.9983 27.4174 32.6955C26.6865 32.3928 26.0618 31.8801 25.6222 31.2223C25.1827 30.5645 24.9481 29.7911 24.9481 29C24.9481 27.9391 25.3695 26.9217 26.1197 26.1716C26.8698 25.4214 27.8873 25 28.9481 25Z" fill="white"/>
</g>
<defs>
<clipPath id="clip0_9_3109">
<rect width="32" height="32" fill="white" transform="translate(12.9481 16)"/>
</clipPath>
</defs>
</svg>
