<svg width="29" height="67" viewBox="0 0 29 67" fill="none" xmlns="http://www.w3.org/2000/svg">
<path d="M19.2511 66.6874L9.62561 61.1302V5.55731L19.2511 11.1147V66.6874Z" fill="#333333"/>
<path d="M19.251 6.10352e-05L9.62559 5.55755L0 11.1148L9.62537 16.6719L19.251 11.1146L28.8763 5.55755L19.251 6.10352e-05Z" fill="#FF6699"/>
<path d="M28.8766 5.5578L19.2512 11.1149L9.62561 16.6721V27.7869L19.2512 22.2294V66.6876L28.8766 61.1303V16.6723V5.5578Z" fill="white"/>
<path d="M0.00012207 11.1149V22.2293L9.62539 27.7867V16.6723L0.00012207 11.1149Z" fill="#333333"/>
<path d="M19.2511 66.6874L9.62561 61.1302V5.55731L19.2511 11.1147V66.6874Z" fill="#FF99BB"/>
<path d="M19.251 6.10352e-05L9.62559 5.55755L0 11.1148L9.62537 16.6719L19.251 11.1146L28.8763 5.55755L19.251 6.10352e-05Z" fill="#FF6699"/>
<path d="M28.8766 5.5578L19.2512 11.1149L9.62561 16.6721V27.7869L19.2512 22.2294V66.6876L28.8766 61.1303V16.6723V5.5578Z" fill="white"/>
<path d="M0.00012207 11.1149V22.2293L9.62539 27.7867V16.6723L0.00012207 11.1149Z" fill="#FF99BB"/>
</svg>
