<svg width="57" height="64" viewBox="0 0 57 64" fill="none" xmlns="http://www.w3.org/2000/svg">
<path d="M24.9845 2.2607C27.4411 0.859516 30.455 0.859514 32.9116 2.2607L42.974 8L52.9636 13.6977C55.4593 15.1212 57 17.7737 57 20.6468L57 32L57 43.3532C57 46.2263 55.4593 48.8788 52.9636 50.3023L42.974 56L32.9116 61.7393C30.455 63.1405 27.4411 63.1405 24.9845 61.7393L14.9221 56L4.93255 50.3023C2.43684 48.8788 0.896119 46.2263 0.896119 43.3532L0.896119 32L0.896118 20.6468C0.896118 17.7737 2.43683 15.1212 4.93255 13.6977L14.9221 8L24.9845 2.2607Z" fill="white" fill-opacity="0.2"/>
<g opacity="0.8" clip-path="url(#clip0_9_3099)">
<path d="M41.9331 37.885C41.7102 39.5788 40.8784 41.1335 39.593 42.2588C38.3076 43.3841 36.6565 44.0031 34.9481 44C25.0231 44 16.9481 35.925 16.9481 26C16.9451 24.2916 17.564 22.6405 18.6893 21.3551C19.8146 20.0697 21.3693 19.2379 23.0631 19.015C23.4914 18.9627 23.9252 19.0503 24.2996 19.2648C24.674 19.4793 24.9691 19.8091 25.1406 20.205L27.7806 26.0987V26.1137C27.912 26.4168 27.9662 26.7477 27.9385 27.0768C27.9108 27.406 27.802 27.7231 27.6219 28C27.5994 28.0337 27.5756 28.065 27.5506 28.0962L24.9481 31.1812C25.8844 33.0837 27.8744 35.0562 29.8019 35.995L32.8444 33.4062C32.8743 33.3811 32.9056 33.3578 32.9381 33.3362C33.2147 33.1517 33.533 33.0391 33.8641 33.0086C34.1952 32.978 34.5287 33.0305 34.8344 33.1612L34.8506 33.1687L40.7394 35.8075C41.136 35.9785 41.4666 36.2732 41.6818 36.6477C41.897 37.0222 41.9851 37.4562 41.9331 37.885Z" fill="white"/>
</g>
<defs>
<clipPath id="clip0_9_3099">
<rect width="32" height="32" fill="white" transform="translate(12.9481 16)"/>
</clipPath>
</defs>
</svg>
