<svg width="39" height="78" viewBox="0 0 39 78" fill="none" xmlns="http://www.w3.org/2000/svg">
<path d="M9.62549 77.8017L38.5019 61.1299V5.55701L9.62549 22.2288V33.3436L28.8762 22.2288V33.3436L9.62549 44.458V55.5724L28.8762 44.458V55.5724L9.62549 66.6873V77.8017Z" fill="white"/>
<path d="M9.62547 77.8018L0 72.2443V61.1299L9.62547 66.6874V77.8018Z" fill="#FF6699"/>
<path d="M0 61.13L19.2509 50.0156L28.8762 55.5726L9.62547 66.6874L0 61.13Z" fill="#FF99BB"/>
<path d="M28.8764 55.5725V44.4581L19.2511 50.0155L28.8764 55.5725Z" fill="#FF6699"/>
<path d="M9.62547 55.5726L0 50.0156V38.9008L9.62547 44.4582V55.5726Z" fill="#FF6699"/>
<path d="M0 38.9006L19.2509 27.7862L28.8764 33.3432L9.62547 44.458L0 38.9006Z" fill="#FF99BB"/>
<path d="M28.8764 33.3437L19.2511 27.7863L28.8764 22.2289V33.3437Z" fill="#FF6699"/>
<path d="M9.62547 33.3437L0 27.7863V16.6719L9.62547 22.2289V33.3437Z" fill="#FF6699"/>
<path d="M0 16.6718L28.8762 0L38.5019 5.557L9.62547 22.2288L0 16.6718Z" fill="#FF99BB"/>
</svg>
