<svg width="57" height="64" viewBox="0 0 57 64" fill="none" xmlns="http://www.w3.org/2000/svg">
<path d="M24.9845 2.2607C27.4411 0.859516 30.455 0.859514 32.9116 2.2607L42.974 8L52.9636 13.6977C55.4593 15.1212 57 17.7737 57 20.6468L57 32L57 43.3532C57 46.2263 55.4593 48.8788 52.9636 50.3023L42.974 56L32.9116 61.7393C30.455 63.1405 27.4411 63.1405 24.9845 61.7393L14.9221 56L4.93255 50.3023C2.43684 48.8788 0.896119 46.2263 0.896119 43.3532L0.896119 32L0.896118 20.6468C0.896118 17.7737 2.43683 15.1212 4.93255 13.6977L14.9221 8L24.9845 2.2607Z" fill="white" fill-opacity="0.2"/>
<g opacity="0.8" clip-path="url(#clip0_9_3104)">
<path d="M41.9481 31.9999C41.9481 32.0637 41.9481 32.1249 41.9481 32.1899C41.9056 33.9724 41.2444 35.9999 38.4481 35.9999C35.5556 35.9999 34.9481 33.8249 34.9481 31.9999V26.9999C34.9484 26.8629 34.9205 26.7272 34.8662 26.6013C34.8118 26.4755 34.7322 26.3621 34.6322 26.2683C34.5322 26.1746 34.414 26.1023 34.2849 26.0562C34.1559 26.01 34.0187 25.9909 33.8819 25.9999C33.6243 26.0221 33.3847 26.1411 33.2114 26.3329C33.0381 26.5248 32.944 26.7752 32.9481 27.0337V27.5337C32.0454 26.7246 30.9187 26.2079 29.7165 26.0518C28.5144 25.8956 27.2931 26.1073 26.2136 26.6588C25.1341 27.2104 24.247 28.0761 23.6691 29.1418C23.0913 30.2074 22.8498 31.4232 22.9765 32.6288C23.1031 33.8344 23.592 34.9734 24.3788 35.8957C25.1655 36.818 26.2132 37.4803 27.3838 37.7955C28.5543 38.1106 29.7929 38.0638 30.9364 37.6612C32.0798 37.2586 33.0745 36.519 33.7894 35.5399C33.9143 35.7586 34.0556 35.9675 34.2119 36.1649C34.8831 36.9999 36.1619 37.9999 38.4481 37.9999C38.8342 38.0012 39.2198 37.9699 39.6006 37.9062C39.6948 37.8905 39.7915 37.9021 39.8792 37.9396C39.967 37.9771 40.0422 38.0389 40.096 38.1178C40.1498 38.1966 40.1798 38.2892 40.1826 38.3847C40.1855 38.4801 40.1609 38.5743 40.1119 38.6562C38.9366 40.6276 37.2605 42.253 35.2539 43.3671C33.2473 44.4813 30.9816 45.0446 28.6869 44.9999C21.8394 44.8624 16.2231 39.3574 15.9581 32.5137C15.8903 30.7866 16.1677 29.0632 16.7739 27.4446C17.3801 25.8259 18.303 24.3443 19.4886 23.0866C20.6743 21.8289 22.0988 20.8202 23.679 20.1196C25.2591 19.419 26.9631 19.0406 28.6912 19.0064C30.4193 18.9723 32.1369 19.2831 33.7435 19.9207C35.3501 20.5583 36.8134 21.5099 38.0478 22.7197C39.2822 23.9296 40.263 25.3735 40.9327 26.967C41.6024 28.5605 41.9476 30.2715 41.9481 31.9999ZM24.9481 31.9999C24.9481 32.7911 25.1827 33.5644 25.6222 34.2222C26.0618 34.88 26.6865 35.3927 27.4174 35.6955C28.1483 35.9982 28.9526 36.0774 29.7285 35.9231C30.5044 35.7687 31.2171 35.3878 31.7765 34.8284C32.336 34.269 32.7169 33.5562 32.8713 32.7803C33.0256 32.0044 32.9464 31.2001 32.6436 30.4692C32.3409 29.7383 31.8282 29.1136 31.1704 28.6741C30.5126 28.2345 29.7392 27.9999 28.9481 27.9999C27.8873 27.9999 26.8698 28.4214 26.1197 29.1715C25.3695 29.9217 24.9481 30.9391 24.9481 31.9999Z" fill="white"/>
</g>
<defs>
<clipPath id="clip0_9_3104">
<rect width="32" height="32" fill="white" transform="translate(12.9481 16)"/>
</clipPath>
</defs>
</svg>
