<svg width="42" height="38" viewBox="0 0 42 38" fill="none" xmlns="http://www.w3.org/2000/svg">
<path d="M39.8241 15.1851C41.1727 17.5496 41.1727 20.4504 39.8241 22.8149L36.8667 28L33.9493 33.1149C32.5792 35.5171 30.0261 37 27.2607 37L21.4667 37L15.6726 37C12.9072 37 10.3542 35.5171 8.98408 33.1149L6.06668 28L3.10927 22.8149C1.76063 20.4504 1.76063 17.5496 3.10927 15.1851L6.06668 10L8.98408 4.88507C10.3542 2.48294 12.9072 0.999999 15.6726 0.999999L21.4667 0.999999L27.2607 0.999999C30.0261 0.999999 32.5792 2.48294 33.9493 4.88507L36.8667 10L39.8241 15.1851Z" stroke="#FFCCDD"/>
<g clip-path="url(#clip0_102_3043)">
<path d="M19.7792 25.1875V20.6875H23.1542V25.1875H27.6542V18.4375C27.6542 18.3636 27.6397 18.2904 27.6115 18.2222C27.5833 18.1539 27.5419 18.0918 27.4896 18.0395L21.8646 12.4145C21.8124 12.3622 21.7504 12.3208 21.6821 12.2925C21.6138 12.2641 21.5406 12.2496 21.4667 12.2496C21.3928 12.2496 21.3196 12.2641 21.2513 12.2925C21.183 12.3208 21.1209 12.3622 21.0687 12.4145L15.4437 18.0395C15.3915 18.0918 15.3501 18.1539 15.3218 18.2222C15.2936 18.2904 15.2791 18.3636 15.2792 18.4375V25.1875H19.7792Z" stroke="#333333" stroke-width="1.5" stroke-linecap="round" stroke-linejoin="round"/>
</g>
<defs>
<clipPath id="clip0_102_3043">
<rect width="18" height="18" fill="white" transform="translate(12.4667 10)"/>
</clipPath>
</defs>
</svg>
