<svg width="42" height="38" viewBox="0 0 42 38" fill="none" xmlns="http://www.w3.org/2000/svg">
<path d="M39.7574 15.1851C41.1061 17.5496 41.1061 20.4504 39.7574 22.8149L36.8 28L33.8826 33.1149C32.5125 35.5171 29.9595 37 27.1941 37L21.4 37L15.6059 37C12.8406 37 10.2875 35.5171 8.91743 33.1149L6.00003 28L3.04262 22.8149C1.69398 20.4504 1.69398 17.5496 3.04262 15.1851L6.00003 10L8.91743 4.88507C10.2875 2.48294 12.8406 0.999999 15.6059 0.999999L21.4 0.999999L27.1941 0.999999C29.9595 0.999999 32.5125 2.48294 33.8826 4.88507L36.8 10L39.7574 15.1851Z" fill="#FFCCDD" stroke="#FFCCDD"/>
<g clip-path="url(#clip0_102_2695)">
<path d="M14.0875 19H21.9625" stroke="#333333" stroke-width="1.5" stroke-linecap="round" stroke-linejoin="round"/>
<path d="M19.15 16.1875L21.9625 19L19.15 21.8125" stroke="#333333" stroke-width="1.5" stroke-linecap="round" stroke-linejoin="round"/>
<path d="M21.9625 12.8125H26.4625V25.1875H21.9625" stroke="#333333" stroke-width="1.5" stroke-linecap="round" stroke-linejoin="round"/>
</g>
<defs>
<clipPath id="clip0_102_2695">
<rect width="18" height="18" fill="white" transform="translate(12.4 10)"/>
</clipPath>
</defs>
</svg>
