<svg width="42" height="38" viewBox="0 0 42 38" fill="none" xmlns="http://www.w3.org/2000/svg">
<path d="M39.8241 15.1851C41.1727 17.5496 41.1727 20.4504 39.8241 22.8149L36.8667 28L33.9493 33.1149C32.5792 35.5171 30.0261 37 27.2607 37L21.4667 37L15.6726 37C12.9072 37 10.3542 35.5171 8.98408 33.1149L6.06668 28L3.10927 22.8149C1.76063 20.4504 1.76063 17.5496 3.10927 15.1851L6.06668 10L8.98408 4.88507C10.3542 2.48294 12.9072 0.999999 15.6726 0.999999L21.4667 0.999999L27.2607 0.999999C30.0261 0.999999 32.5792 2.48294 33.9493 4.88507L36.8667 10L39.8241 15.1851Z" fill="#333333" stroke="#333333"/>
<g clip-path="url(#clip0_102_2689)">
<path d="M26.5292 19.5625H29.9042" stroke="#FFCCDD" stroke-width="1.5" stroke-linecap="round" stroke-linejoin="round"/>
<path d="M28.2167 17.875V21.25" stroke="#FFCCDD" stroke-width="1.5" stroke-linecap="round" stroke-linejoin="round"/>
<path d="M20.0604 21.25C22.3904 21.25 24.2792 19.3612 24.2792 17.0312C24.2792 14.7013 22.3904 12.8125 20.0604 12.8125C17.7305 12.8125 15.8417 14.7013 15.8417 17.0312C15.8417 19.3612 17.7305 21.25 20.0604 21.25Z" stroke="#FFCCDD" stroke-width="1.5" stroke-linecap="round" stroke-linejoin="round"/>
<path d="M14.1542 24.0625C15.5991 22.3434 17.6389 21.25 20.0604 21.25C22.482 21.25 24.5218 22.3434 25.9667 24.0625" stroke="#FFCCDD" stroke-width="1.5" stroke-linecap="round" stroke-linejoin="round"/>
</g>
<defs>
<clipPath id="clip0_102_2689">
<rect width="18" height="18" fill="white" transform="translate(12.4667 10)"/>
</clipPath>
</defs>
</svg>
