<svg width="298" height="32" viewBox="0 0 298 32" fill="none" xmlns="http://www.w3.org/2000/svg">
<path d="M22 16L149 16" stroke="#FF6699"/>
<path d="M149 16L276 16" stroke="#FF6699"/>
<path d="M12.0533 1.69553C13.8958 0.644637 16.1562 0.644636 17.9986 1.69552L22.039 4L26.0246 6.2733C27.8964 7.34092 29.052 9.33028 29.052 11.4851L29.052 16L29.052 20.5149C29.052 22.6697 27.8964 24.6591 26.0246 25.7267L22.039 28L17.9987 30.3045C16.1562 31.3554 13.8958 31.3554 12.0533 30.3045L8.01299 28L4.02733 25.7267C2.15554 24.6591 1 22.6697 1 20.5149L1 16L1 11.4851C1 9.33028 2.15554 7.34092 4.02732 6.2733L8.01299 4L12.0533 1.69553Z" fill="#FFE5EE" stroke="#FF6699"/>
<g clip-path="url(#clip0_102_1797)">
<path d="M17.7759 15.5C17.7759 16.0439 17.6147 16.5756 17.3125 17.0278C17.0103 17.4801 16.5808 17.8325 16.0783 18.0407C15.5758 18.2488 15.0229 18.3033 14.4894 18.1972C13.956 18.0911 13.466 17.8291 13.0814 17.4445C12.6968 17.0599 12.4349 16.5699 12.3288 16.0365C12.2227 15.5031 12.2771 14.9501 12.4853 14.4476C12.6934 13.9451 13.0459 13.5156 13.4981 13.2135C13.9504 12.9113 14.482 12.75 15.0259 12.75C15.755 12.7508 16.454 13.0408 16.9696 13.5564C17.4851 14.0719 17.7751 14.7709 17.7759 15.5ZM21.5259 16C21.5259 17.2856 21.1447 18.5423 20.4305 19.6112C19.7163 20.6801 18.7011 21.5132 17.5134 22.0052C16.3257 22.4972 15.0187 22.6259 13.7579 22.3751C12.497 22.1243 11.3388 21.5052 10.4297 20.5962C9.52071 19.6872 8.90164 18.529 8.65084 17.2681C8.40003 16.0072 8.52876 14.7003 9.02073 13.5126C9.5127 12.3248 10.3458 11.3097 11.4147 10.5954C12.4837 9.88122 13.7404 9.5 15.0259 9.5C16.7493 9.50182 18.4015 10.1872 19.6201 11.4058C20.8387 12.6244 21.5241 14.2767 21.5259 16ZM20.5259 16C20.5251 15.2597 20.3751 14.5272 20.0847 13.8462C19.7943 13.1653 19.3695 12.5499 18.8358 12.0368C18.3021 11.5238 17.6705 11.1237 16.9786 10.8604C16.2867 10.597 15.5488 10.476 14.8091 10.5044C11.8653 10.6181 9.51782 13.07 9.52594 16.0156C9.52877 17.3566 10.0233 18.6499 10.9159 19.6506C11.2795 19.1234 11.7412 18.6712 12.2759 18.3188C12.3215 18.2886 12.3757 18.2743 12.4302 18.2779C12.4848 18.2815 12.5366 18.3029 12.5778 18.3387C13.2573 18.9265 14.1257 19.2499 15.0241 19.2499C15.9225 19.2499 16.7908 18.9265 17.4703 18.3387C17.5115 18.3029 17.5634 18.2815 17.6179 18.2779C17.6724 18.2743 17.7266 18.2886 17.7722 18.3188C18.3076 18.671 18.77 19.1232 19.1341 19.6506C20.0311 18.6463 20.5266 17.3466 20.5259 16Z" fill="#FF6699"/>
</g>
<path d="M147.018 1.13035C148.247 0.429758 149.753 0.429757 150.982 1.13035L156.013 4L161.008 6.84887C162.256 7.56061 163.026 8.88686 163.026 10.3234L163.026 16L163.026 21.6766C163.026 23.1131 162.256 24.4394 161.008 25.1511L156.013 28L150.982 30.8696C149.753 31.5702 148.247 31.5702 147.018 30.8696L141.987 28L136.992 25.1511C135.744 24.4394 134.974 23.1131 134.974 21.6766L134.974 16L134.974 10.3234C134.974 8.88686 135.744 7.56061 136.992 6.84887L141.987 4L147.018 1.13035Z" fill="#FFF5F8" stroke="#FF6699"/>
<g clip-path="url(#clip1_102_1797)">
<path d="M154 13H152V11.5C152 10.7044 151.684 9.94129 151.121 9.37868C150.559 8.81607 149.796 8.5 149 8.5C148.204 8.5 147.441 8.81607 146.879 9.37868C146.316 9.94129 146 10.7044 146 11.5V13H144C143.735 13 143.48 13.1054 143.293 13.2929C143.105 13.4804 143 13.7348 143 14V21C143 21.2652 143.105 21.5196 143.293 21.7071C143.48 21.8946 143.735 22 144 22H154C154.265 22 154.52 21.8946 154.707 21.7071C154.895 21.5196 155 21.2652 155 21V14C155 13.7348 154.895 13.4804 154.707 13.2929C154.52 13.1054 154.265 13 154 13ZM149.5 17.9144V19.5C149.5 19.6326 149.447 19.7598 149.354 19.8536C149.26 19.9473 149.133 20 149 20C148.867 20 148.74 19.9473 148.646 19.8536C148.553 19.7598 148.5 19.6326 148.5 19.5V17.9144C148.166 17.7964 147.885 17.5643 147.706 17.2591C147.527 16.9539 147.462 16.5953 147.522 16.2465C147.581 15.8978 147.763 15.5814 148.033 15.3533C148.304 15.1253 148.646 15.0002 149 15.0002C149.354 15.0002 149.696 15.1253 149.967 15.3533C150.237 15.5814 150.419 15.8978 150.478 16.2465C150.538 16.5953 150.473 16.9539 150.294 17.2591C150.115 17.5643 149.834 17.7964 149.5 17.9144ZM151 13H147V11.5C147 10.9696 147.211 10.4609 147.586 10.0858C147.961 9.71071 148.47 9.5 149 9.5C149.53 9.5 150.039 9.71071 150.414 10.0858C150.789 10.4609 151 10.9696 151 11.5V13Z" fill="#FF6699"/>
</g>
<path d="M280.992 1.13035C282.221 0.429758 283.727 0.429757 284.956 1.13035L289.987 4L294.982 6.84887C296.23 7.56061 297 8.88686 297 10.3234L297 16L297 21.6766C297 23.1131 296.23 24.4394 294.982 25.1511L289.987 28L284.956 30.8696C283.727 31.5702 282.221 31.5702 280.992 30.8696L275.961 28L270.966 25.1511C269.718 24.4394 268.948 23.1131 268.948 21.6766L268.948 16L268.948 10.3234C268.948 8.88686 269.718 7.56061 270.966 6.84887L275.961 4L280.992 1.13035Z" fill="#FF6699" stroke="#FF6699"/>
<g clip-path="url(#clip2_102_1797)">
<path d="M289.09 14.4262C288.855 14.18 288.611 13.9262 288.519 13.7031C288.434 13.4988 288.429 13.16 288.424 12.8319C288.415 12.2219 288.405 11.5306 287.924 11.05C287.443 10.5694 286.752 10.5594 286.142 10.55C285.814 10.545 285.475 10.54 285.271 10.455C285.048 10.3631 284.794 10.1194 284.548 9.88375C284.116 9.46937 283.626 9 282.974 9C282.321 9 281.832 9.46937 281.4 9.88375C281.154 10.1194 280.9 10.3631 280.677 10.455C280.474 10.54 280.134 10.545 279.806 10.55C279.196 10.5594 278.505 10.5694 278.024 11.05C277.543 11.5306 277.536 12.2219 277.524 12.8319C277.519 13.16 277.514 13.4988 277.429 13.7031C277.337 13.9256 277.093 14.18 276.858 14.4262C276.443 14.8575 275.974 15.3475 275.974 16C275.974 16.6525 276.443 17.1419 276.858 17.5737C277.093 17.82 277.337 18.0737 277.429 18.2969C277.514 18.5013 277.519 18.84 277.524 19.1681C277.533 19.7781 277.543 20.4694 278.024 20.95C278.505 21.4306 279.196 21.4406 279.806 21.45C280.134 21.455 280.473 21.46 280.677 21.545C280.9 21.6369 281.154 21.8806 281.4 22.1163C281.831 22.5306 282.321 23 282.974 23C283.626 23 284.116 22.5306 284.548 22.1163C284.794 21.8806 285.048 21.6369 285.271 21.545C285.475 21.46 285.814 21.455 286.142 21.45C286.752 21.4406 287.443 21.4306 287.924 20.95C288.405 20.4694 288.415 19.7781 288.424 19.1681C288.429 18.84 288.434 18.5013 288.519 18.2969C288.611 18.0744 288.855 17.82 289.09 17.5737C289.505 17.1425 289.974 16.6525 289.974 16C289.974 15.3475 289.505 14.8581 289.09 14.4262ZM285.828 14.8538L282.328 18.3538C282.281 18.4002 282.226 18.4371 282.165 18.4623C282.105 18.4874 282.04 18.5004 281.974 18.5004C281.908 18.5004 281.843 18.4874 281.783 18.4623C281.722 18.4371 281.667 18.4002 281.62 18.3538L280.12 16.8538C280.026 16.7599 279.974 16.6327 279.974 16.5C279.974 16.3673 280.026 16.2401 280.12 16.1462C280.214 16.0524 280.341 15.9997 280.474 15.9997C280.607 15.9997 280.734 16.0524 280.828 16.1462L281.974 17.2931L285.12 14.1462C285.167 14.0998 285.222 14.0629 285.283 14.0378C285.343 14.0127 285.408 13.9997 285.474 13.9997C285.54 13.9997 285.605 14.0127 285.665 14.0378C285.726 14.0629 285.781 14.0998 285.828 14.1462C285.874 14.1927 285.911 14.2479 285.936 14.3086C285.961 14.3692 285.974 14.4343 285.974 14.5C285.974 14.5657 285.961 14.6308 285.936 14.6914C285.911 14.7521 285.874 14.8073 285.828 14.8538Z" fill="white"/>
</g>
<defs>
<clipPath id="clip0_102_1797">
<rect width="16" height="16" fill="white" transform="translate(7.02594 8)"/>
</clipPath>
<clipPath id="clip1_102_1797">
<rect width="16" height="16" fill="white" transform="translate(141 8)"/>
</clipPath>
<clipPath id="clip2_102_1797">
<rect width="16" height="16" fill="white" transform="translate(274.974 8)"/>
</clipPath>
</defs>
</svg>
