<svg width="44" height="320" viewBox="0 0 44 320" fill="none" xmlns="http://www.w3.org/2000/svg">
<path d="M22.0391 24L22.0391 160" stroke="#FF6699"/>
<path d="M22.0391 160L22.0391 296" stroke="#999999"/>
<path d="M19.0663 1.69553C20.9088 0.644638 23.1692 0.644636 25.0116 1.69552L32.5584 6L40.0506 10.2733C41.9224 11.3409 43.0779 13.3303 43.0779 15.4851L43.0779 24L43.0779 32.5149C43.0779 34.6697 41.9224 36.6591 40.0506 37.7267L32.5584 42L25.0116 46.3045C23.1692 47.3554 20.9088 47.3554 19.0663 46.3045L11.5195 42L4.02733 37.7267C2.15554 36.6591 1 34.6697 1 32.5149L1 24L1 15.4851C1 13.3303 2.15554 11.3409 4.02733 10.2733L11.5195 6L19.0663 1.69553Z" fill="#FFE5EE" stroke="#FF6699"/>
<g clip-path="url(#clip0_98_3710)">
<path d="M26.1641 23.25C26.1641 24.0658 25.9221 24.8634 25.4689 25.5417C25.0156 26.2201 24.3714 26.7488 23.6176 27.061C22.8639 27.3732 22.0345 27.4549 21.2343 27.2957C20.4341 27.1366 19.6991 26.7437 19.1223 26.1668C18.5454 25.5899 18.1525 24.8549 17.9933 24.0547C17.8342 23.2546 17.9159 22.4252 18.2281 21.6714C18.5403 20.9177 19.069 20.2734 19.7473 19.8202C20.4257 19.3669 21.2232 19.125 22.0391 19.125C23.1327 19.1262 24.1812 19.5612 24.9545 20.3346C25.7278 21.1079 26.1628 22.1564 26.1641 23.25ZM31.7891 24C31.7891 25.9284 31.2172 27.8134 30.1459 29.4168C29.0746 31.0202 27.5518 32.2699 25.7702 33.0078C23.9887 33.7458 22.0283 33.9389 20.1369 33.5627C18.2456 33.1865 16.5083 32.2579 15.1448 30.8943C13.7812 29.5307 12.8526 27.7934 12.4764 25.9021C12.1002 24.0108 12.2933 22.0504 13.0312 20.2688C13.7692 18.4873 15.0189 16.9645 16.6223 15.8932C18.2256 14.8218 20.1107 14.25 22.0391 14.25C24.6241 14.2527 27.1025 15.2808 28.9303 17.1087C30.7582 18.9366 31.7863 21.415 31.7891 24ZM30.2891 24C30.2879 22.8896 30.0627 21.7908 29.6271 20.7693C29.1915 19.7479 28.5544 18.8248 27.7539 18.0553C26.9534 17.2857 26.0058 16.6855 24.968 16.2905C23.9302 15.8956 22.8234 15.714 21.7138 15.7566C17.2981 15.9272 13.7769 19.605 13.7891 24.0234C13.7933 26.0349 14.5352 27.9749 15.8741 29.4759C16.4193 28.6851 17.112 28.0068 17.9141 27.4781C17.9825 27.433 18.0638 27.4114 18.1455 27.4169C18.2273 27.4223 18.3051 27.4543 18.3669 27.5081C19.3861 28.3897 20.6887 28.8749 22.0363 28.8749C23.3838 28.8749 24.6864 28.3897 25.7056 27.5081C25.7675 27.4543 25.8452 27.4223 25.927 27.4169C26.0088 27.4114 26.0901 27.433 26.1584 27.4781C26.9615 28.0065 27.6552 28.6848 28.2013 29.4759C29.5468 27.9694 30.2901 26.0199 30.2891 24Z" fill="#FF6699"/>
</g>
<path d="M19.0663 137.696C20.9088 136.645 23.1692 136.645 25.0116 137.696L32.5584 142L40.0506 146.273C41.9224 147.341 43.0779 149.33 43.0779 151.485L43.0779 160L43.0779 168.515C43.0779 170.67 41.9224 172.659 40.0506 173.727L32.5584 178L25.0116 182.304C23.1692 183.355 20.9088 183.355 19.0663 182.304L11.5195 178L4.02733 173.727C2.15554 172.659 1 170.67 1 168.515L1 160L1 151.485C1 149.33 2.15554 147.341 4.02733 146.273L11.5195 142L19.0663 137.696Z" fill="#FF6699" stroke="#FF6699"/>
<g clip-path="url(#clip1_98_3710)">
<path d="M29.5391 155.5H26.5391V153.25C26.5391 152.057 26.065 150.912 25.221 150.068C24.3771 149.224 23.2325 148.75 22.0391 148.75C20.8456 148.75 19.701 149.224 18.8571 150.068C18.0132 150.912 17.5391 152.057 17.5391 153.25V155.5H14.5391C14.1412 155.5 13.7597 155.658 13.4784 155.939C13.1971 156.221 13.0391 156.602 13.0391 157V167.5C13.0391 167.898 13.1971 168.279 13.4784 168.561C13.7597 168.842 14.1412 169 14.5391 169H29.5391C29.9369 169 30.3184 168.842 30.5997 168.561C30.881 168.279 31.0391 167.898 31.0391 167.5V157C31.0391 156.602 30.881 156.221 30.5997 155.939C30.3184 155.658 29.9369 155.5 29.5391 155.5ZM22.7891 162.872V165.25C22.7891 165.449 22.71 165.64 22.5694 165.78C22.4287 165.921 22.238 166 22.0391 166C21.8401 166 21.6494 165.921 21.5087 165.78C21.3681 165.64 21.2891 165.449 21.2891 165.25V162.872C20.7887 162.695 20.3669 162.347 20.0983 161.889C19.8298 161.431 19.7317 160.893 19.8215 160.37C19.9112 159.847 20.183 159.372 20.5888 159.03C20.9946 158.688 21.5083 158.5 22.0391 158.5C22.5698 158.5 23.0835 158.688 23.4893 159.03C23.8951 159.372 24.1669 159.847 24.2567 160.37C24.3464 160.893 24.2483 161.431 23.9798 161.889C23.7112 162.347 23.2895 162.695 22.7891 162.872ZM25.0391 155.5H19.0391V153.25C19.0391 152.454 19.3551 151.691 19.9177 151.129C20.4804 150.566 21.2434 150.25 22.0391 150.25C22.8347 150.25 23.5978 150.566 24.1604 151.129C24.723 151.691 25.0391 152.454 25.0391 153.25V155.5Z" fill="white"/>
</g>
<path d="M19.0663 273.696C20.9088 272.645 23.1692 272.645 25.0116 273.696L32.5584 278L40.0506 282.273C41.9224 283.341 43.0779 285.33 43.0779 287.485L43.0779 296L43.0779 304.515C43.0779 306.67 41.9224 308.659 40.0506 309.727L32.5584 314L25.0116 318.304C23.1692 319.355 20.9088 319.355 19.0663 318.304L11.5195 314L4.02733 309.727C2.15554 308.659 1 306.67 1 304.515L1 296L1 287.485C1 285.33 2.15554 283.341 4.02733 282.273L11.5195 278L19.0663 273.696Z" fill="#FFE5EE" stroke="#999999"/>
<g clip-path="url(#clip2_98_3710)">
<path d="M31.2134 293.639C30.86 293.27 30.4944 292.889 30.3566 292.555C30.2291 292.248 30.2216 291.74 30.2141 291.248C30.2 290.333 30.185 289.296 29.4641 288.575C28.7431 287.854 27.7063 287.839 26.7913 287.825C26.2991 287.817 25.7909 287.81 25.4844 287.682C25.1506 287.545 24.7691 287.179 24.3997 286.826C23.7528 286.204 23.0178 285.5 22.0391 285.5C21.0603 285.5 20.3263 286.204 19.6784 286.826C19.3091 287.179 18.9284 287.545 18.5938 287.682C18.2891 287.81 17.7791 287.817 17.2869 287.825C16.3719 287.839 15.335 287.854 14.6141 288.575C13.8931 289.296 13.8828 290.333 13.8641 291.248C13.8566 291.74 13.8491 292.248 13.7216 292.555C13.5837 292.888 13.2181 293.27 12.8647 293.639C12.2431 294.286 11.5391 295.021 11.5391 296C11.5391 296.979 12.2431 297.713 12.8647 298.361C13.2181 298.73 13.5837 299.111 13.7216 299.445C13.8491 299.752 13.8566 300.26 13.8641 300.752C13.8781 301.667 13.8931 302.704 14.6141 303.425C15.335 304.146 16.3719 304.161 17.2869 304.175C17.7791 304.182 18.2872 304.19 18.5938 304.318C18.9275 304.455 19.3091 304.821 19.6784 305.174C20.3253 305.796 21.0603 306.5 22.0391 306.5C23.0178 306.5 23.7519 305.796 24.3997 305.174C24.7691 304.821 25.1497 304.455 25.4844 304.318C25.7909 304.19 26.2991 304.182 26.7913 304.175C27.7063 304.161 28.7431 304.146 29.4641 303.425C30.185 302.704 30.2 301.667 30.2141 300.752C30.2216 300.26 30.2291 299.752 30.3566 299.445C30.4944 299.112 30.86 298.73 31.2134 298.361C31.835 297.714 32.5391 296.979 32.5391 296C32.5391 295.021 31.835 294.287 31.2134 293.639ZM26.3197 294.281L21.0697 299.531C21 299.6 20.9173 299.656 20.8263 299.693C20.7352 299.731 20.6376 299.751 20.5391 299.751C20.4405 299.751 20.3429 299.731 20.2519 299.693C20.1608 299.656 20.0781 299.6 20.0084 299.531L17.7584 297.281C17.6177 297.14 17.5386 296.949 17.5386 296.75C17.5386 296.551 17.6177 296.36 17.7584 296.219C17.8992 296.079 18.09 296 18.2891 296C18.4881 296 18.679 296.079 18.8197 296.219L20.5391 297.94L25.2584 293.219C25.3281 293.15 25.4108 293.094 25.5019 293.057C25.5929 293.019 25.6905 293 25.7891 293C25.8876 293 25.9852 293.019 26.0762 293.057C26.1673 293.094 26.25 293.15 26.3197 293.219C26.3894 293.289 26.4446 293.372 26.4824 293.463C26.5201 293.554 26.5395 293.651 26.5395 293.75C26.5395 293.849 26.5201 293.946 26.4824 294.037C26.4446 294.128 26.3894 294.211 26.3197 294.281Z" fill="#999999"/>
</g>
<defs>
<clipPath id="clip0_98_3710">
<rect width="24" height="24" fill="white" transform="translate(10.0391 12)"/>
</clipPath>
<clipPath id="clip1_98_3710">
<rect width="24" height="24" fill="white" transform="translate(10.0391 148)"/>
</clipPath>
<clipPath id="clip2_98_3710">
<rect width="24" height="24" fill="white" transform="translate(10.0391 284)"/>
</clipPath>
</defs>
</svg>
