<svg width="39" height="78" viewBox="0 0 39 78" fill="none" xmlns="http://www.w3.org/2000/svg">
<path d="M9.62549 77.8018L38.5017 61.13V50.0156L19.251 61.13V50.0156L38.5017 38.9012V5.55756L9.62549 22.2294V33.3438L28.8764 22.2294V33.3438L9.62549 44.4582V77.8018Z" fill="white"/>
<path d="M9.62568 22.2292L0 16.6718L28.8766 0L38.5019 5.55741L9.62568 22.2292Z" fill="#FF99BB"/>
<path d="M0 16.6719V27.7863L9.62568 33.3437V22.2293L0 16.6719Z" fill="#FF6699"/>
<path d="M9.62568 44.458L0 38.901L19.2511 27.7862L28.8766 33.3436L9.62568 44.458Z" fill="#FF99BB"/>
<path d="M28.8762 22.2294L19.2507 27.7864L28.8762 33.3438V22.2294Z" fill="#FF6699"/>
<path d="M0 38.9013V72.2449L9.62568 77.8019V44.4583L0 38.9013Z" fill="#FF6699"/>
<path d="M38.5015 50.0155L28.8762 44.4581L19.2507 50.0155V61.1299L38.5015 50.0155Z" fill="#FF99BB"/>
</svg>
